<svg xmlns="http://www.w3.org/2000/svg" viewBox="0 0 68 68" width="68" height="68">
	<defs>
		<clipPath clipPathUnits="userSpaceOnUse" id="cp1">
			<path d="M0 0L68 0L68 68L0 68Z" />
		</clipPath>
	</defs>
	<style>
		tspan { white-space:pre }
		.shp0 { fill: #ff5c58 } 
		.shp1 { fill: #ffffff } 
	</style>
	<g id="Page 1" clip-path="url(#cp1)">
		<path id="Path 1" class="shp0" d="M34.02 68C52.8 68 68.03 52.77 68.03 33.98C68.03 15.2 52.8 -0.03 34.02 -0.03C15.23 -0.03 0 15.2 0 33.98C0 52.77 15.23 68 34.02 68Z" />
		<path id="Path 2" class="shp1" d="M34.02 16.89C24.63 16.89 17.01 24.5 17.01 33.89C17.01 40.86 21.2 46.84 27.19 49.47C27.14 48.28 27.18 46.86 27.49 45.57C27.81 44.19 29.67 36.3 29.67 36.3C29.67 36.3 29.13 35.21 29.13 33.61C29.13 31.09 30.59 29.2 32.41 29.2C33.96 29.2 34.71 30.37 34.71 31.76C34.71 33.31 33.71 35.64 33.2 37.79C32.78 39.6 34.11 41.07 35.89 41.07C39.11 41.07 41.28 36.93 41.28 32.03C41.28 28.3 38.77 25.51 34.2 25.51C29.05 25.51 25.83 29.36 25.83 33.65C25.83 35.14 26.27 36.18 26.95 36.99C27.27 37.36 27.31 37.51 27.2 37.94C27.12 38.25 26.93 39.01 26.85 39.3C26.74 39.73 26.39 39.89 26 39.73C23.62 38.76 22.52 36.16 22.52 33.23C22.52 28.4 26.59 22.61 34.67 22.61C41.16 22.61 45.44 27.31 45.44 32.35C45.44 39.02 41.73 44.01 36.26 44.01C34.43 44.01 32.7 43.01 32.11 41.89C32.11 41.89 31.12 45.8 30.91 46.56C30.55 47.87 29.84 49.18 29.2 50.2C30.73 50.66 32.34 50.9 34.02 50.9C43.41 50.9 51.02 43.29 51.02 33.89C51.02 24.5 43.41 16.89 34.02 16.89Z" />
	</g>
</svg>