<svg xmlns="http://www.w3.org/2000/svg" viewBox="0 0 68 68" width="68" height="68">
	<defs>
		<clipPath clipPathUnits="userSpaceOnUse" id="cp1">
			<path d="M0 0L68 0L68 68L0 68Z" />
		</clipPath>
	</defs>
	<style>
		tspan { white-space:pre }
		.shp0 { fill: #67d7f4 } 
		.shp1 { fill: #ffffff } 
	</style>
	<g id="Page 1" clip-path="url(#cp1)">
		<path id="Path 1" class="shp0" d="M34.02 68C52.8 68 68.03 52.77 68.03 33.98C68.03 15.2 52.8 -0.03 34.02 -0.03C15.23 -0.03 0 15.2 0 33.98C0 52.77 15.23 68 34.02 68Z" />
		<path id="Path 2" class="shp1" d="M51.08 25.07C49.83 25.63 48.48 26.01 47.07 26.17C48.51 25.31 49.62 23.94 50.14 22.31C48.79 23.11 47.29 23.69 45.7 24C44.43 22.64 42.61 21.8 40.6 21.8C36.74 21.8 33.61 24.93 33.61 28.79C33.61 29.33 33.67 29.87 33.79 30.38C27.98 30.09 22.83 27.31 19.38 23.07C18.78 24.11 18.43 25.31 18.43 26.59C18.43 29.01 19.67 31.15 21.54 32.41C20.4 32.37 19.32 32.06 18.38 31.54L18.38 31.62C18.38 35.01 20.79 37.84 23.99 38.48C23.4 38.64 22.78 38.72 22.14 38.72C21.69 38.72 21.25 38.68 20.83 38.6C21.72 41.37 24.3 43.4 27.36 43.45C24.96 45.33 21.95 46.44 18.68 46.44C18.11 46.44 17.55 46.41 17.01 46.35C20.1 48.33 23.78 49.49 27.72 49.49C40.58 49.49 47.61 38.84 47.61 29.6C47.61 29.29 47.61 28.99 47.59 28.69C48.96 27.71 50.15 26.48 51.08 25.07Z" />
	</g>
</svg>